<svg xmlns="http://www.w3.org/2000/svg" width="80" height="78.335" viewBox="0 0 80 78.335">
  <g id="github" transform="translate(0 -5.329)">
    <g id="グループ_1" data-name="グループ 1" transform="translate(0 5.329)">
      <path id="パス_1" data-name="パス 1" d="M39.995,5.329A40.183,40.183,0,0,0,27.36,83.594c2,.37,2.73-.87,2.73-1.935,0-.955-.035-3.48-.055-6.83C18.91,77.254,16.56,69.444,16.56,69.444c-1.815-4.64-4.44-5.875-4.44-5.875-3.635-2.49.27-2.44.27-2.44,4.015.285,6.125,4.14,6.125,4.14C22.085,71.4,27.88,69.634,30.16,68.6a8.572,8.572,0,0,1,2.54-5.37c-8.88-1.015-18.22-4.46-18.22-19.845a15.566,15.566,0,0,1,4.12-10.78,14.471,14.471,0,0,1,.39-10.625s3.36-1.08,11,4.115a37.756,37.756,0,0,1,20.03,0c7.635-5.195,10.99-4.115,10.99-4.115a14.492,14.492,0,0,1,.4,10.625,15.536,15.536,0,0,1,4.11,10.78c0,15.425-9.35,18.82-18.26,19.815,1.435,1.24,2.715,3.69,2.715,7.435,0,5.37-.05,9.7-.05,11.015,0,1.075.72,2.325,2.75,1.93a40.187,40.187,0,0,0-12.68-78.26Z" transform="translate(0 -5.329)"/>
    </g>
  </g>
</svg>
